<svg id="Layer_1" data-name="Layer 1" xmlns="http://www.w3.org/2000/svg" viewBox="0 0 100 100"><defs><style>.cls-1{fill:#fff;stroke-width:15px;}.cls-1,.cls-3{stroke:#fff;stroke-miterlimit:10;}.cls-2{fill:#009245;}.cls-3{fill:none;stroke-width:1.02px;}</style></defs><title>label</title><circle class="cls-1" cx="49" cy="58" r="24.5"/><path d="M38.83,60.73c0-3.74,0-7.47,0-11.21a10.16,10.16,0,0,1,20.28-1.11,2.66,2.66,0,0,1-2.4,2.8,2.62,2.62,0,0,1-3-2.32c-.35-2.12-1.37-3.69-3.51-4.26-3.71-1-6.77,2.25-5.92,6.22a4.1,4.1,0,0,0,3.19,3.3q4.09,1.1,8.18,2.24a4.22,4.22,0,0,1,3.46,4.52q0,5.78,0,11.55c0,2.81-1.61,4.45-4.42,4.48Q49,77,43.3,76.94c-2.87,0-4.46-1.67-4.47-4.55C38.82,68.5,38.83,64.62,38.83,60.73ZM49,60a6.1,6.1,0,1,0,6.11,6.11A6.09,6.09,0,0,0,49,60Z"/><path d="M49,67.43c-1,0-2,0-2.94,0s-1.13-.59-1.13-1.41S45,64.73,46,64.75c2,0,4,0,6,0,1,0,1.07.56,1.08,1.33S53,67.45,52,67.44,50,67.43,49,67.43Z"/><circle class="cls-2" cx="68" cy="76.82" r="9.18"/><polyline class="cls-3" points="62.09 77.49 65.58 80.98 73.91 72.65"/></svg>