<svg id="Layer_1" data-name="Layer 1" xmlns="http://www.w3.org/2000/svg" viewBox="0 0 100 100"><defs><style>.cls-1{fill:#ccc;stroke:#ccc;stroke-miterlimit:10;stroke-width:15px;}</style></defs><title>label</title><circle class="cls-1" cx="50" cy="58" r="24.5"/><path d="M48.14,49.1a1.19,1.19,0,0,1-.34-.17l-4-4a1.35,1.35,0,0,1-.35-1.64,1.31,1.31,0,0,1,1.83-.56,2.92,2.92,0,0,1,.5.41l3.95,3.94.29.28.3-.28,8-8a1.37,1.37,0,0,1,1.67-.4,1.31,1.31,0,0,1,.55,1.88,3.11,3.11,0,0,1-.39.47l-7.94,7.93a1.42,1.42,0,0,1-.36.19l.12.16H63.33A4,4,0,0,1,67.27,52a4.55,4.55,0,0,1,.23,1.41q0,8,0,16a4,4,0,0,1-4.13,4.13H36.62a4,4,0,0,1-4.13-4.13q0-8,0-15.91a4,4,0,0,1,4.18-4.18H48Zm-1.5,21.79v-.09c1.09,0,2.19,0,3.28,0a20,20,0,0,0,4.52-.43,3.93,3.93,0,0,0,3-2.68A11.54,11.54,0,0,0,58,64.46c.06-1.55.09-3.1.07-4.65a16.49,16.49,0,0,0-.54-4.53,3.79,3.79,0,0,0-2.45-2.68A10.76,10.76,0,0,0,51.66,52C48.83,52,46,52,43.17,52a17.77,17.77,0,0,0-4.41.46A3.84,3.84,0,0,0,35.85,55a8.7,8.7,0,0,0-.48,2.16C35.26,59.09,35.2,61,35.2,63a14.93,14.93,0,0,0,.57,4.6,3.59,3.59,0,0,0,2.36,2.55,10.33,10.33,0,0,0,2.36.52C42.53,70.77,44.59,70.81,46.63,70.89ZM62.81,60.13A2.11,2.11,0,1,0,60.68,58,2.12,2.12,0,0,0,62.81,60.13Zm0,5.39a2.12,2.12,0,1,0-2.11-2.12A2.12,2.12,0,0,0,62.79,65.52Z"/></svg>