<svg id="Layer_1" data-name="Layer 1" xmlns="http://www.w3.org/2000/svg" viewBox="0 0 100 100"><defs><style>.cls-1{fill:#ccc;}</style></defs><title>label2</title><circle class="cls-1" cx="50" cy="58" r="24.5"/><path d="M51.35,61.55l-3.62,2.08c-1.65-1.2-3.31-2.36-4.93-3.6a2.92,2.92,0,0,0-2.4-.7c-2,.3-3.92.44-5.89.63a.54.54,0,0,1-.44-.17C33.54,58.89,33,58,32.49,57l.39-.24L57.35,42.69a3.71,3.71,0,0,1,5.37,1.42q1.41,2.43,2.81,4.87a3.68,3.68,0,0,1-1.41,5.21Q61.08,56,58,57.7a.41.41,0,0,0-.25.55,3.66,3.66,0,0,1-2.52,4.42.39.39,0,0,0-.33.46c0,.56,0,1.12,0,1.68a1.63,1.63,0,0,0,1.78,1.73H66V60.64h1.48V73.93H66.06V68H56.74a3.12,3.12,0,0,1-3.32-3.31c0-.56,0-1.12,0-1.68a.39.39,0,0,0-.18-.3A4,4,0,0,1,51.35,61.55Zm1.36-.78a2.13,2.13,0,0,0,2.6.27,2.1,2.1,0,0,0,1-2.34Z"/><path d="M44.85,63c-2.6-1.87-3.07-2.57-4.05-2.44-1.55.2-3.26-.06-4.66,1.32l3.3,5.71L46,63.78Z"/></svg>