<svg id="Layer_1" data-name="Layer 1" xmlns="http://www.w3.org/2000/svg" viewBox="0 0 100 100"><defs><style>.cls-1{fill:#fff;}.cls-2{fill:#009245;}.cls-3{fill:none;stroke:#fff;stroke-miterlimit:10;stroke-width:1.02px;}</style></defs><title>label2</title><circle class="cls-1" cx="50" cy="54" r="24.5"/><path d="M61.1,49a1.15,1.15,0,0,0-1.42-.78L53.53,50l-3.75-5.57a1,1,0,0,0-.1-.1s0-.06-.05-.08l-.08,0a1.1,1.1,0,0,0-.29-.17L49.11,44a1.14,1.14,0,0,0-.43,0H48.6l-7.38,1.3a1.15,1.15,0,0,0-.85.67l-1.94,4.45a1.15,1.15,0,0,0,2.11.91l1.69-3.89,5.23-.92-1.39,9.24-1.53,6.79-5,4a1.15,1.15,0,0,0,1.42,1.8l5.36-4.21a1.14,1.14,0,0,0,.41-.65L47.9,58,52,61.35l1.4,7.42a1.15,1.15,0,0,0,1.13.93l.21,0a1.15,1.15,0,0,0,.91-1.34l-1.48-7.83a1.15,1.15,0,0,0-.4-.68l-5.35-4.35,1.1-7.3L52.09,52a1.15,1.15,0,0,0,1.27.46l6.95-2A1.15,1.15,0,0,0,61.1,49Z"/><path d="M54.52,70.34a1.78,1.78,0,0,1-1.75-1.45L51.41,61.7,48.3,59.16l-1,4.42a1.77,1.77,0,0,1-.64,1L41.3,68.81a1.83,1.83,0,0,1-2.5-.3,1.78,1.78,0,0,1,.3-2.5L44,62.18l1.48-6.57,1.25-8.32-4,.71-1.55,3.58a1.79,1.79,0,0,1-3.3-.06,1.77,1.77,0,0,1,0-1.36l1.94-4.45a1.78,1.78,0,0,1,1.33-1l7.49-1.32h.07a1.76,1.76,0,0,1,.6,0l.21.08a1.84,1.84,0,0,1,.48.28l.13.09a.67.67,0,0,1,.1.13.8.8,0,0,1,.12.14l3.5,5.19,5.7-1.65a1.79,1.79,0,0,1,2.21,1.21h0a1.79,1.79,0,0,1-1.22,2.21l-7,2a1.82,1.82,0,0,1-2-.72L49.9,49.91l-.8,5.32,5.07,4.12a1.8,1.8,0,0,1,.63,1.05l1.48,7.83a1.79,1.79,0,0,1-1.75,2.11Zm-7-13.46L52.58,61,54,68.65a.51.51,0,0,0,.5.41.56.56,0,0,0,.42-.22.5.5,0,0,0,.08-.38l-1.48-7.83a.52.52,0,0,0-.18-.3l-5.63-4.57,1.4-9.28,3.49,5.18a.52.52,0,0,0,.56.21l7-2a.51.51,0,1,0-.29-1l-6.59,1.91-4-6s0,0,0,0l-.07-.07L49,44.66a.49.49,0,0,0-.25,0H48.6l-7.27,1.29a.51.51,0,0,0-.38.3L39,50.67a.51.51,0,0,0,.26.67.51.51,0,0,0,.67-.26l1.83-4.2,6.44-1.13L46.69,55.85,45.1,62.91,39.88,67a.51.51,0,0,0-.08.71.45.45,0,0,0,.72.08l5.36-4.21a.5.5,0,0,0,.18-.29Z"/><ellipse cx="50.01" cy="40.63" rx="2.34" ry="2.33"/><path d="M50,43.6a3,3,0,1,1,3-3A3,3,0,0,1,50,43.6Zm0-4.66a1.69,1.69,0,1,0,1.7,1.69A1.7,1.7,0,0,0,50,38.94Z"/><path d="M68.63,52.12A19.15,19.15,0,0,0,65.78,45l-1.2,1.06c3.78,6.44,3.83,12.79-.07,19.15l1.18,1.08a18,18,0,0,0,2.77-6.37c.23-1.07.34-2.17.5-3.25V54.61C68.86,53.78,68.78,52.94,68.63,52.12Z"/><path d="M63.18,47.29l-.89.87-.22.24a12.69,12.69,0,0,1,0,14.49L63.19,64A14.46,14.46,0,0,0,63.18,47.29Z"/><path d="M35.48,46.08,34.3,45a18,18,0,0,0-2.77,6.37c-.23,1.07-.34,2.17-.5,3.25v2.06c.11.83.19,1.67.34,2.5a19.14,19.14,0,0,0,2.84,7.11l1.2-1.06C31.64,58.79,31.58,52.44,35.48,46.08Z"/><path d="M37.94,48.4l-1.13-1.12a14.46,14.46,0,0,0,0,16.72l.89-.87.22-.24A12.69,12.69,0,0,1,37.94,48.4Z"/><circle class="cls-1" cx="50" cy="54" r="30"/><path d="M71.71,50.92c-.14-.19-.28-.33-.52-.28s-.19.28-.19.47a4,4,0,0,1-1.42,3.13c-.33.28-.47.19-.57-.19a12.41,12.41,0,0,0-.71-1.85A15.13,15.13,0,0,0,64,46.89a12.4,12.4,0,0,0-1.61-1.14.71.71,0,0,0-.9,0,14.82,14.82,0,0,1-2,1.37c-.43.24-.43.52,0,.76a8.84,8.84,0,0,0,.95.47,1.2,1.2,0,0,1,.66.9,1.07,1.07,0,0,1-.43,1.09,1.14,1.14,0,0,1-1.33,0,17.13,17.13,0,0,0-5.21-1.85,20.69,20.69,0,0,0-5.92-.38H48a1.32,1.32,0,0,1-1.28-1,1.2,1.2,0,0,1,.81-1.33c.52-.19.57-.38.19-.76a11.88,11.88,0,0,1-1.28-1.75A.78.78,0,0,0,45.5,43c-.66.19-1.33.33-2,.52a.87.87,0,0,1-.95-.19,4.21,4.21,0,0,0-4.36-.85c-.62.19-.71.33-.71,1v2.75a.68.68,0,0,1-.28.66,5.68,5.68,0,0,0-.57.52,14,14,0,0,0-3.84,5.12,1.29,1.29,0,0,1-1.37.95A2.66,2.66,0,0,0,28.77,56c0,1,0,2.13,0,3.18a2.53,2.53,0,0,0,.71,1.71,2.67,2.67,0,0,0,2.23.85.74.74,0,0,1,.85.57c.14.43.33.81.52,1.23A16.65,16.65,0,0,0,37,68.17a1.12,1.12,0,0,1,.43.95V73a2.39,2.39,0,0,0,2.27,2.7h3.84a2.16,2.16,0,0,0,1.37-.52,2.91,2.91,0,0,0,.9-2.09c0-.71,0-.76.76-.66a20.87,20.87,0,0,0,3.46.33,24.43,24.43,0,0,0,5.55-.52c.57-.14.66,0,.66.52A3.53,3.53,0,0,0,56.3,74a2.29,2.29,0,0,0,2.18,1.66h3.84a2.07,2.07,0,0,0,1.9-1.23,3.19,3.19,0,0,0,.33-1.61v-4.5a1,1,0,0,1,.38-.85,16.6,16.6,0,0,0,2.23-2.56,12.77,12.77,0,0,0,2.32-6.35,1.5,1.5,0,0,1,.85-1.37A4.21,4.21,0,0,0,71.71,50.92Zm-35,2.89a.44.44,0,0,1-.47-.43c-.14-.85,1.14-2.51,2-2.51a.48.48,0,0,1,.52.43A2.78,2.78,0,0,1,36.73,53.81Z"/><path d="M54.83,30.16a8.2,8.2,0,1,0,8.25,8.15A8.24,8.24,0,0,0,54.83,30.16Zm.38,12.51c-.19,0-.24.19-.24.38v1.14c0,.14,0,.28-.19.28h-.85c-.19,0-.24-.09-.24-.28v-.52c0-.71,0-.71-.66-.85-1-.24-1-.24-.81-1.18v-.09c.09-.52.09-.52.62-.33a2.7,2.7,0,0,0,1.23.19,1.07,1.07,0,0,0,.9-1.56,2.32,2.32,0,0,0-.81-.85,8.26,8.26,0,0,1-1.23-.9,2.57,2.57,0,0,1,.66-4.27c.24-.14.38-.24.33-.52V33c0-1,0-1,1.09-.95.19,0,.24.09.24.24,0,.38-.14.85,0,1.09s.66.24,1,.28.47.24.38.62,0,.71-.24.9-.52-.19-.85-.19a4.57,4.57,0,0,0-.81,0,1,1,0,0,0-.52,1.66,3.58,3.58,0,0,0,.66.52c.33.24.71.43,1,.71C57.54,39.17,57.25,42.06,55.21,42.67Z"/><circle class="cls-2" cx="66" cy="71.82" r="9.18"/><polyline class="cls-3" points="60.09 72.49 63.58 75.98 71.91 67.65"/></svg>