<svg id="Layer_1" data-name="Layer 1" xmlns="http://www.w3.org/2000/svg" viewBox="0 0 100 100"><defs><style>.cls-1{fill:#ccc;}</style></defs><title>label2</title><circle class="cls-1" cx="50" cy="58" r="24.5"/><path d="M61.1,42.1,63,40.69a.63.63,0,0,1,.7-.15.64.64,0,0,1,.34.67,6.82,6.82,0,0,0,0,1,1.92,1.92,0,0,1,1.79-1.16,1.66,1.66,0,0,1,1.22.58,1.73,1.73,0,0,1-.19,2.5c-.89.74-1.83.49-2.85-.82,0,.19,0,.31,0,.43q0,12.74,0,25.48c0,1.25,0,2.51,0,3.76a.83.83,0,0,1-.37.74c-.7.51-1.38,1-2.08,1.55a.63.63,0,0,1-.95,0l-1.86-1.39-1.81,1.36c-.45.33-.6.33-1,0-.66-.5-1.32-1-2-1.48a.92.92,0,0,1-.41-.83q0-14.51,0-29v-.53h-7v.47q0,14.49,0,29a1.06,1.06,0,0,1-.49,1c-.67.47-1.31,1-2,1.46a.63.63,0,0,1-.95,0l-1.86-1.39-1.81,1.36c-.44.33-.6.33-1,0-.66-.5-1.32-1-2-1.48A.92.92,0,0,1,36,73q0-12.67,0-25.33,0-1.92,0-3.83a1.27,1.27,0,0,0-.06-.4,1.9,1.9,0,0,1-1.68,1.16A1.66,1.66,0,0,1,33,44a1.71,1.71,0,0,1,0-2.48,1.66,1.66,0,0,1,1.62-.43,1.9,1.9,0,0,1,1.25,1.12l.1,0c0-.33,0-.66,0-1a.65.65,0,0,1,.33-.67.62.62,0,0,1,.7.14l.93.7.94.71,1.19-.89.67-.5c.4-.3.57-.3,1,0l1.84,1.38,1.8-1.35c.24-.18.47-.36.79-.19s.32.45.32.76,0,.58,0,.9h7c0-.34,0-.69,0-1a.62.62,0,0,1,.34-.63.6.6,0,0,1,.67.13l1.9,1.42,1.81-1.35c.47-.35.6-.35,1.06,0Zm-24,.11v.5q0,7.94,0,15.88,0,7,0,13.95c0,.14,0,.33.08.41.33.29.69.54,1.1.85,0-.22,0-.34,0-.46q0-9.71,0-19.42,0-5.24,0-10.48a.59.59,0,0,0-.1-.4C37.91,42.76,37.56,42.52,37.14,42.21Zm2.34,31.58c.36-.27.63-.49.93-.68a.57.57,0,0,0,.27-.55q0-14.92,0-29.85c0-.14,0-.28,0-.5-.35.26-.62.48-.91.67a.6.6,0,0,0-.28.57q0,14.1,0,28.21C39.48,72.34,39.48,73,39.48,73.79Zm3.52,0v-.5q0-8.41,0-16.82,0-6.51,0-13c0-.14,0-.33-.09-.4-.32-.28-.68-.53-1.09-.83,0,.23,0,.38,0,.52q0,6.26,0,12.52,0,8.67,0,17.33a.58.58,0,0,0,.11.39C42.25,73.25,42.6,73.49,43,73.79ZM58.19,42.21c-.34.26-.6.47-.89.66a.62.62,0,0,0-.31.6c0,1.29,0,2.58,0,3.87q0,13,0,26c0,.12,0,.24,0,.44.34-.26.6-.47.87-.64a.66.66,0,0,0,.32-.63q0-12.65,0-25.29C58.19,45.59,58.19,43.94,58.19,42.21ZM60.53,73.8c0-.26,0-.44,0-.62q0-5.33,0-10.66,0-9.56,0-19.12c0-.11,0-.28-.07-.34-.34-.28-.7-.54-1.11-.85,0,.24,0,.39,0,.53q0,7,0,14,0,7.94,0,15.88c0,.13,0,.3.09.37C59.76,73.24,60.11,73.49,60.53,73.8Zm2.33-31.59a6.61,6.61,0,0,1-.69.51,1,1,0,0,0-.51,1q0,14.8,0,29.61c0,.13,0,.25,0,.45a6.63,6.63,0,0,1,.68-.5,1,1,0,0,0,.51-1q0-14.79,0-29.57C62.86,42.57,62.86,42.44,62.86,42.21Zm-17.54,0c-.32.24-.58.45-.85.63a.66.66,0,0,0-.32.63q0,15,0,29.92c0,.1,0,.2,0,.37.32-.24.58-.45.86-.64a.62.62,0,0,0,.3-.6q0-15,0-29.92C45.34,42.51,45.33,42.4,45.32,42.23ZM55.85,73.79c0-.21,0-.34,0-.46q0-4.56,0-9.12,0-10.38,0-20.76c0-.13,0-.31-.07-.37-.33-.29-.7-.54-1.12-.86v.52q0,8.67,0,17.33,0,6.24,0,12.48a.63.63,0,0,0,.11.43C55.1,73.25,55.45,73.49,55.85,73.79Zm-21-31a.59.59,0,1,0-.6.6A.6.6,0,0,0,34.82,42.8Zm30.94-.58a.59.59,0,0,0-.58.61.59.59,0,1,0,.58-.61Z"/></svg>