<svg id="Layer_1" data-name="Layer 1" xmlns="http://www.w3.org/2000/svg" viewBox="0 0 100 100"><defs><style>.cls-1{fill:#999;}.cls-2{fill:#ccc;stroke:#ccc;stroke-miterlimit:10;stroke-width:15px;}</style></defs><title>label</title><circle class="cls-1" cx="50" cy="54" r="24.5"/><path d="M55.26,53.62a6.59,6.59,0,0,1,5.12.44,6,6,0,0,0,4,.75,5.68,5.68,0,0,0,4.52-5.45,11.52,11.52,0,0,0-6.76-10.1,7.36,7.36,0,0,0-8.08,1.49A13.1,13.1,0,0,0,49.9,49a.78.78,0,0,1-.14.27,1,1,0,0,1-.09-.21A7.18,7.18,0,0,1,50,43.75a8,8,0,0,0,.81-3.66,5.24,5.24,0,0,0-4-4.66l-.13,0a4.93,4.93,0,0,0-.79-.22,4.79,4.79,0,0,0-1.6,0h0a14,14,0,0,0-3.52,1.17,9.76,9.76,0,0,0-6.08,7.51,6.83,6.83,0,0,0,1.57,5.63,12.68,12.68,0,0,0,8.57,4.66h.06l.34.05a.25.25,0,0,1,0,.07.71.71,0,0,1-.34.17,7.24,7.24,0,0,1-5.19-.36,8.17,8.17,0,0,0-3.55-.82c-2.65.12-3.9,2.06-4.61,3.51A5.25,5.25,0,0,0,31.15,58a5,5,0,0,0,0,2,16.18,16.18,0,0,0,1.71,4.39A9.22,9.22,0,0,0,38.3,69a7.19,7.19,0,0,0,7.41-1.38,12.74,12.74,0,0,0,4.45-8.38v-.08c0-.1,0-.23,0-.32h.07s.08.06.17.35a7.19,7.19,0,0,1-.37,5.18,8.17,8.17,0,0,0-.83,3.55,5.44,5.44,0,0,0,5.19,5h.43a11.46,11.46,0,0,0,10.09-7,7.17,7.17,0,0,0-1.46-7.64,12.83,12.83,0,0,0-8.27-4.3h0l-.36-.05a.21.21,0,0,1,0-.07S54.91,53.72,55.26,53.62ZM50,56.2h0a2.2,2.2,0,1,1,.1-4.39,2.21,2.21,0,0,1,2.15,2.25A2.17,2.17,0,0,1,50,56.2Z"/><circle class="cls-2" cx="50" cy="54" r="30"/><path d="M42.45,42.88l2.78,2.63c.58.55,1.18,1.08,1.74,1.65.28.29.46.27.75,0q3.49-3.38,7-6.73c1.92-1.84,3.83-3.69,5.76-5.51.36-.34.38-.57,0-.89s-1-.89-1.47-1.34l.1-.2L67.75,31l-1.67,8.72-1.89-1.87L47.36,54.27l-5-4.74L32.16,59.71l-3.08-3.36Z"/><path d="M67.56,61.77c0,3.53,0,7.06,0,10.58,0,.47-.1.65-.61.65q-4.88,0-9.76,0c-.47,0-.6-.14-.6-.61q0-10.61,0-21.22c0-.45.09-.63.59-.62q4.91,0,9.82,0c.45,0,.58.14.58.58C67.56,54.68,67.56,58.22,67.56,61.77Z"/><path d="M53.36,65.23c0,2.39,0,4.77,0,7.16,0,.46-.12.61-.6.61q-4.86,0-9.71,0c-.48,0-.6-.15-.6-.61q0-7.18,0-14.37c0-.46.12-.61.6-.61q4.86,0,9.71,0c.48,0,.61.15.6.61C53.35,60.42,53.36,62.83,53.36,65.23Z"/><path d="M33.69,62.53c1.64,0,3.27,0,4.91,0,.4,0,.53.11.53.52q0,4.73,0,9.46c0,.39-.13.5-.5.49q-4.93,0-9.87,0c-.38,0-.5-.11-.5-.5q0-4.73,0-9.46c0-.41.13-.53.53-.52C30.42,62.54,32.05,62.53,33.69,62.53Z"/></svg>