<svg id="Layer_1" data-name="Layer 1" xmlns="http://www.w3.org/2000/svg" viewBox="0 0 100 100"><defs><style>.cls-1{fill:#fff;}.cls-2{fill:#009245;}.cls-3{fill:none;stroke:#fff;stroke-miterlimit:10;stroke-width:1.02px;}</style></defs><title>label2</title><circle class="cls-1" cx="49" cy="58" r="24.5"/><path d="M60,75.52H38s0,0-.05,0a3.52,3.52,0,0,1-3-3.81q0-7.74,0-15.49c0-4,0-8,0-12.07a3.44,3.44,0,0,1,2.1-3.32,7.08,7.08,0,0,1,1-.31H60a.32.32,0,0,0,.08.05A3.5,3.5,0,0,1,63,44.21q0,9.09,0,18.19,0,4.75,0,9.5a3.53,3.53,0,0,1-2.45,3.46Zm-7.57-4.45.73-.06a27.56,27.56,0,0,0,5.1-.71,14.83,14.83,0,0,0,2.32-.87,1.16,1.16,0,0,0,.66-1.17q0-11.18,0-22.37A1.75,1.75,0,0,0,59.37,44H38.6a1.75,1.75,0,0,0-1.86,1.87q0,11.24,0,22.47a1.09,1.09,0,0,0,.49,1,5.93,5.93,0,0,0,1.11.59,19.39,19.39,0,0,0,4.78,1c.76.08,1.52.13,2.26.2a.37.37,0,0,1,0,.08,1.78,1.78,0,0,0,2,1.75h3A1.81,1.81,0,0,0,52.45,71.06ZM49,43.1a.87.87,0,1,0-.87-.87A.88.88,0,0,0,49,43.1Z"/><path d="M54.8,49c-.51.46-1,.89-1.48,1.35-.15.14-.26.07-.39,0a8.46,8.46,0,0,0-2.67-.9l-.27,0-.3,1.92c0,.19-.05.38-.08.57a.61.61,0,0,1-1.22,0L48,49.45a8.31,8.31,0,0,0-4.24,1.77l1,1.45c.12.17.25.33.36.5a.6.6,0,0,1-.06.78.58.58,0,0,1-.78,0c-.59-.41-1.17-.83-1.75-1.25l-.17-.11a8.27,8.27,0,0,0-1.73,4.23l2.07.32.44.07a.59.59,0,0,1,0,1.18c-.68.12-1.37.22-2.06.32l-.44.08a8.23,8.23,0,0,0,1.62,4l1.5-.64a.62.62,0,0,1,.82.15.61.61,0,0,1-.12.83l-1.64,1.7a1,1,0,0,1-1.65,0,10.32,10.32,0,0,1-2.71-7.58A10.48,10.48,0,0,1,54.8,49Z"/><path d="M48.75,61a3.17,3.17,0,1,1,.91-6.25.59.59,0,0,0,.58-.16l5-4.57a1.07,1.07,0,0,1,1.14-.25,1,1,0,0,1,.7.89,1.18,1.18,0,0,1-.36,1c-1.5,1.65-3,3.31-4.5,5a.57.57,0,0,0-.16.57A3.18,3.18,0,0,1,48.75,61ZM49,58.9a1,1,0,0,0,1-1,1.06,1.06,0,1,0-2.11,0A1,1,0,0,0,49,58.9Z"/><path d="M57.8,52a10.1,10.1,0,0,1,1.54,3.88,10.35,10.35,0,0,1-2.46,8.77,1.64,1.64,0,0,1-.52.43.89.89,0,0,1-1.1-.14c-.62-.64-1.24-1.27-1.85-1.92a.55.55,0,0,1,0-.75.57.57,0,0,1,.73-.17c.44.18.88.37,1.32.57a.28.28,0,0,0,.42-.11,8.45,8.45,0,0,0,1.47-3.8l-1.72-.27c-.27,0-.54-.08-.81-.13a.59.59,0,0,1,0-1.17L57,56.91l.32-.06A7.57,7.57,0,0,0,56.5,54a.45.45,0,0,1,.1-.64C57,53,57.39,52.5,57.8,52Z"/><circle class="cls-2" cx="68" cy="75.82" r="9.18"/><polyline class="cls-3" points="62.09 76.49 65.58 79.98 73.91 71.65"/></svg>