<svg id="Layer_1" data-name="Layer 1" xmlns="http://www.w3.org/2000/svg" viewBox="0 0 100 100"><defs><style>.cls-1{fill:#ccc;}</style></defs><title>label2</title><circle class="cls-1" cx="50" cy="58" r="24.5"/><path d="M61.08,53a1.15,1.15,0,0,0-1.42-.78L53.52,54l-3.76-5.57a1,1,0,0,0-.1-.1s0-.06-.05-.08l-.08,0a1.1,1.1,0,0,0-.29-.17L49.09,48a1.14,1.14,0,0,0-.43,0h-.08L41.2,49.3a1.15,1.15,0,0,0-.85.67l-1.93,4.46a1.15,1.15,0,0,0,2.11.91l1.69-3.89,5.22-.93-1.38,9.24-1.52,6.8-5,4a1.15,1.15,0,0,0,1.42,1.8l5.36-4.22a1.14,1.14,0,0,0,.41-.65L47.9,62,52,65.35l1.41,7.42a1.15,1.15,0,0,0,1.13.93l.21,0a1.15,1.15,0,0,0,.91-1.34l-1.49-7.83a1.15,1.15,0,0,0-.4-.68L48.42,59.5l1.09-7.3L52.09,56a1.15,1.15,0,0,0,1.27.46l6.95-2A1.15,1.15,0,0,0,61.08,53Z"/><path d="M54.54,74.33a1.78,1.78,0,0,1-1.75-1.45L51.42,65.7,48.3,63.17l-1,4.42a1.77,1.77,0,0,1-.64,1l-5.35,4.22a1.83,1.83,0,0,1-2.5-.29,1.78,1.78,0,0,1,.29-2.5L44,66.2l1.47-6.57,1.24-8.32-4,.71L41.11,55.6a1.79,1.79,0,0,1-3.3-.05,1.77,1.77,0,0,1,0-1.36l1.93-4.46a1.78,1.78,0,0,1,1.33-1l7.49-1.33h.07a1.76,1.76,0,0,1,.6,0l.21.08a1.84,1.84,0,0,1,.48.28l.13.09a.67.67,0,0,1,.1.13.8.8,0,0,1,.12.14l3.5,5.19,5.69-1.66a1.79,1.79,0,0,1,2.21,1.21h0a1.79,1.79,0,0,1-1.21,2.21l-6.95,2a1.82,1.82,0,0,1-2-.71l-1.66-2.46-.79,5.32,5.07,4.11a1.8,1.8,0,0,1,.63,1l1.49,7.83a1.79,1.79,0,0,1-1.75,2.12Zm-7-13.44L52.59,65,54,72.65a.51.51,0,0,0,.5.41.56.56,0,0,0,.42-.22.5.5,0,0,0,.08-.38l-1.49-7.83a.52.52,0,0,0-.18-.3l-5.64-4.57,1.38-9.28,3.5,5.17a.52.52,0,0,0,.57.21l6.95-2a.51.51,0,1,0-.29-1l-6.59,1.92-4-6s0,0,0,0l-.07-.07L49,48.66a.49.49,0,0,0-.25,0h-.16l-7.27,1.3a.51.51,0,0,0-.38.3L39,54.69a.51.51,0,0,0,.27.67.51.51,0,0,0,.67-.27l1.82-4.21,6.43-1.14L46.69,59.86l-1.58,7.06L39.89,71a.51.51,0,0,0-.08.71.45.45,0,0,0,.72.08l5.36-4.22a.5.5,0,0,0,.18-.29Z"/><ellipse cx="49.99" cy="44.63" rx="2.34" ry="2.33" transform="translate(-0.07 0.08) rotate(-0.09)"/><path d="M50,47.6a3,3,0,1,1,3-3A3,3,0,0,1,50,47.6Zm0-4.66a1.69,1.69,0,1,0,1.7,1.69A1.7,1.7,0,0,0,50,42.94Z"/><path d="M68.62,56.09A19.15,19.15,0,0,0,65.77,49L64.57,50c3.79,6.43,3.85,12.78,0,19.15l1.18,1.08a18,18,0,0,0,2.76-6.37c.23-1.07.34-2.17.5-3.25V58.59C68.85,57.76,68.77,56.91,68.62,56.09Z"/><path d="M63.16,51.27l-.89.87-.22.24a12.69,12.69,0,0,1,0,14.49L63.2,68A14.46,14.46,0,0,0,63.16,51.27Z"/><path d="M35.47,50.11,34.29,49a18,18,0,0,0-2.76,6.37c-.23,1.07-.34,2.17-.5,3.25v2.06c.11.83.19,1.67.34,2.49a19.14,19.14,0,0,0,2.85,7.11l1.2-1.06C31.64,62.83,31.58,56.47,35.47,50.11Z"/><path d="M37.93,52.42,36.8,51.31a14.46,14.46,0,0,0,0,16.72l.89-.87.22-.24A12.69,12.69,0,0,1,37.93,52.42Z"/></svg>