<svg id="Layer_1" data-name="Layer 1" xmlns="http://www.w3.org/2000/svg" viewBox="0 0 100 100"><defs><style>.cls-1{fill:#999;}.cls-2{fill:#ccc;stroke:#ccc;stroke-miterlimit:10;stroke-width:15px;}</style></defs><title>label</title><circle class="cls-1" cx="50" cy="54" r="24.5"/><path d="M61.1,49a1.15,1.15,0,0,0-1.42-.78L53.53,50l-3.75-5.57a1,1,0,0,0-.1-.1s0-.06-.05-.08l-.08,0a1.1,1.1,0,0,0-.29-.17L49.11,44a1.14,1.14,0,0,0-.43,0H48.6l-7.38,1.3a1.15,1.15,0,0,0-.85.67l-1.94,4.45a1.15,1.15,0,0,0,2.11.91l1.69-3.89,5.23-.92-1.39,9.24-1.53,6.79-5,4a1.15,1.15,0,0,0,1.42,1.8l5.36-4.21a1.14,1.14,0,0,0,.41-.65L47.9,58,52,61.35l1.4,7.42a1.15,1.15,0,0,0,1.13.93l.21,0a1.15,1.15,0,0,0,.91-1.34l-1.48-7.83a1.15,1.15,0,0,0-.4-.68l-5.35-4.35,1.1-7.3L52.09,52a1.15,1.15,0,0,0,1.27.46l6.95-2A1.15,1.15,0,0,0,61.1,49Z"/><path d="M54.52,70.34a1.78,1.78,0,0,1-1.75-1.45L51.41,61.7,48.3,59.16l-1,4.42a1.77,1.77,0,0,1-.64,1L41.3,68.81a1.83,1.83,0,0,1-2.5-.3,1.78,1.78,0,0,1,.3-2.5L44,62.18l1.48-6.57,1.25-8.32-4,.71-1.55,3.58a1.79,1.79,0,0,1-3.3-.06,1.77,1.77,0,0,1,0-1.36l1.94-4.45a1.78,1.78,0,0,1,1.33-1l7.49-1.32h.07a1.76,1.76,0,0,1,.6,0l.21.08a1.84,1.84,0,0,1,.48.28l.13.09a.67.67,0,0,1,.1.13.8.8,0,0,1,.12.14l3.5,5.19,5.7-1.65a1.79,1.79,0,0,1,2.21,1.21h0a1.79,1.79,0,0,1-1.22,2.21l-7,2a1.82,1.82,0,0,1-2-.72L49.9,49.91l-.8,5.32,5.07,4.12a1.8,1.8,0,0,1,.63,1.05l1.48,7.83a1.79,1.79,0,0,1-1.75,2.11Zm-7-13.46L52.58,61,54,68.65a.51.51,0,0,0,.5.41.56.56,0,0,0,.42-.22.5.5,0,0,0,.08-.38l-1.48-7.83a.52.52,0,0,0-.18-.3l-5.63-4.57,1.4-9.28,3.49,5.18a.52.52,0,0,0,.56.21l7-2a.51.51,0,1,0-.29-1l-6.59,1.91-4-6s0,0,0,0l-.07-.07L49,44.66a.49.49,0,0,0-.25,0H48.6l-7.27,1.29a.51.51,0,0,0-.38.3L39,50.67a.51.51,0,0,0,.26.67.51.51,0,0,0,.67-.26l1.83-4.2,6.44-1.13L46.69,55.85,45.1,62.91,39.88,67a.51.51,0,0,0-.08.71.45.45,0,0,0,.72.08l5.36-4.21a.5.5,0,0,0,.18-.29Z"/><ellipse cx="50.01" cy="40.63" rx="2.34" ry="2.33"/><path d="M50,43.6a3,3,0,1,1,3-3A3,3,0,0,1,50,43.6Zm0-4.66a1.69,1.69,0,1,0,1.7,1.69A1.7,1.7,0,0,0,50,38.94Z"/><path d="M68.63,52.12A19.15,19.15,0,0,0,65.78,45l-1.2,1.06c3.78,6.44,3.83,12.79-.07,19.15l1.18,1.08a18,18,0,0,0,2.77-6.37c.23-1.07.34-2.17.5-3.25V54.61C68.86,53.78,68.78,52.94,68.63,52.12Z"/><path d="M63.18,47.29l-.89.87-.22.24a12.69,12.69,0,0,1,0,14.49L63.19,64A14.46,14.46,0,0,0,63.18,47.29Z"/><path d="M35.48,46.08,34.3,45a18,18,0,0,0-2.77,6.37c-.23,1.07-.34,2.17-.5,3.25v2.06c.11.83.19,1.67.34,2.5a19.14,19.14,0,0,0,2.84,7.11l1.2-1.06C31.64,58.79,31.58,52.44,35.48,46.08Z"/><path d="M37.94,48.4l-1.13-1.12a14.46,14.46,0,0,0,0,16.72l.89-.87.22-.24A12.69,12.69,0,0,1,37.94,48.4Z"/><circle class="cls-2" cx="50" cy="54" r="30"/><path d="M44.92,49.42v-.63c0-3.91,0-7.82,0-11.73a2.64,2.64,0,0,1,1.37-2.46,11.78,11.78,0,0,1,4.15-1.43,43.41,43.41,0,0,1,16,.08,11.41,11.41,0,0,1,3.65,1.27,2.64,2.64,0,0,1,1.48,2.62c-.09,1.85,0,3.71,0,5.57s0,3.52,0,5.29q0,6.15,0,12.3c0,1.57,0,3.14,0,4.71a2.35,2.35,0,0,1-1.07,2.08,10.15,10.15,0,0,1-4,1.52,42.05,42.05,0,0,1-10.42.75,1.13,1.13,0,0,0-.45.08c-.74.29-1.47.62-2.22.9-.25.09-.39.17-.36.46.19,1.51-.67,2.35-1.9,2.95a17.73,17.73,0,0,1-5.5,1.44,45.37,45.37,0,0,1-11.16.09A21.34,21.34,0,0,1,29,74a8.8,8.8,0,0,1-.91-.43,2.7,2.7,0,0,1-1.64-2.78c.08-1,0-2.08,0-3.12a2,2,0,0,1,1-1.92c.59-.34,1.23-.59,1.88-.9a2.6,2.6,0,0,1-.88-2.52c0-.7,0-1.41,0-2.15-.31-.1-.62-.18-.91-.3A19.34,19.34,0,0,1,25.64,59a2.37,2.37,0,0,1-1.26-2.31c0-1.07,0-2.15,0-3.22a2.55,2.55,0,0,1,1.27-2.37,11.19,11.19,0,0,1,4.13-1.48,44.3,44.3,0,0,1,14.58-.24ZM69.53,39.11a40.54,40.54,0,0,1-22.56,0c0-.06,0,0,0,0,0,1.06,0,2.11,0,3.17a.81.81,0,0,0,.55.86,17.52,17.52,0,0,0,2.27.77A40.35,40.35,0,0,0,66,44.06a19.6,19.6,0,0,0,3.13-1,.76.76,0,0,0,.4-.56C69.54,41.34,69.53,40.2,69.53,39.11ZM47,45.13c0,1.19,0,2.34,0,3.49a.85.85,0,0,0,.45.6,13.85,13.85,0,0,0,2.34.83A40.29,40.29,0,0,0,66,50.22a20.63,20.63,0,0,0,3.13-1,.7.7,0,0,0,.41-.46c0-1.18,0-2.36,0-3.58a31.49,31.49,0,0,1-11.27,1.66A31.3,31.3,0,0,1,47,45.13Zm22.58,6.22c-6.1,2-12.26,1.88-18.45,1.12V56.7l4.35.29a39.53,39.53,0,0,0,10.47-.6,22.58,22.58,0,0,0,3.05-1,.94.94,0,0,0,.55-.62C69.57,53.66,69.54,52.5,69.54,51.34ZM49.05,53v-.17a5.2,5.2,0,0,0-.93-.46,36.84,36.84,0,0,0-3.81-.94,41.18,41.18,0,0,0-13.06,0,32.87,32.87,0,0,0-3.93,1,4.22,4.22,0,0,0-.9.55,2.89,2.89,0,0,0,.31.26,2.2,2.2,0,0,0,.51.26c1.37.36,2.74.81,4.13,1a42.38,42.38,0,0,0,12.06.11,17.2,17.2,0,0,0,4.74-1.15A8.06,8.06,0,0,0,49.05,53ZM69.56,36.59l0-.17a4.63,4.63,0,0,0-.71-.38,19.38,19.38,0,0,0-2.2-.68,41.5,41.5,0,0,0-15.41-.25,25,25,0,0,0-3.36.94,4.24,4.24,0,0,0-.89.54l0,.18c.37.17.73.37,1.11.51a23.11,23.11,0,0,0,5.72,1.14,44.5,44.5,0,0,0,9.63-.09,18.15,18.15,0,0,0,5.25-1.24A7.78,7.78,0,0,0,69.56,36.59ZM57.26,63.21a1.29,1.29,0,0,0,.2,0c2.08-.1,4.16-.14,6.23-.33a17.65,17.65,0,0,0,4.89-1.12,1.27,1.27,0,0,0,1-1.45c-.09-.94,0-1.9,0-2.87-4.68,1.71-9.48,1.74-14.37,1.6,0,.48,0,.93,0,1.37a.56.56,0,0,0,.35.59A2.75,2.75,0,0,1,57.26,63.21ZM26.47,55.5c-.15,1.74,0,1.94,1.64,2.45A28.09,28.09,0,0,0,34.88,59a39.74,39.74,0,0,0,10.61-.63,21.77,21.77,0,0,0,3-1,1,1,0,0,0,.53-.61,6.71,6.71,0,0,0,0-1.3A40.52,40.52,0,0,1,26.47,55.5Zm26.64,6.18a40.66,40.66,0,0,1-22.54,0s0,.18,0,.32c0,1.53,0,1.54,1.42,2a23.68,23.68,0,0,0,5.64,1.07,41,41,0,0,0,11.95-.53,21.26,21.26,0,0,0,3-1,.94.94,0,0,0,.52-.6A7.06,7.06,0,0,0,53.11,61.68ZM51.05,71c-7.59.75-15.13.84-22.55-1.3,0,.46,0,.94,0,1.42a.64.64,0,0,0,.44.71,14.94,14.94,0,0,0,2.12.76,40.14,40.14,0,0,0,16.81.14,17.82,17.82,0,0,0,2.76-.94C51,71.62,51.2,71.35,51.05,71ZM32.64,66.43c-.16.92-.08,1.09.79,1.45a10.44,10.44,0,0,0,1.27.44,31.84,31.84,0,0,0,7,1,39.06,39.06,0,0,0,9.75-.63,23.08,23.08,0,0,0,3.1-1,1,1,0,0,0,.6-.61,7.2,7.2,0,0,0,0-1.44,1.55,1.55,0,0,0-.23,0,23.13,23.13,0,0,1-7.17,1.45c-1.46.1-2.94.13-4.41.12-2,0-4,0-6-.19C35.77,67,34.21,66.66,32.64,66.43ZM69.54,63.6c-4,1.51-8.14,1.67-12.28,1.68v2a37.35,37.35,0,0,0,8.67-.69,23.9,23.9,0,0,0,3-.95,1,1,0,0,0,.58-.61A7.64,7.64,0,0,0,69.54,63.6ZM53.1,59.27V59c-.38-.06-.76-.11-1.13-.18a3.76,3.76,0,0,0-2.83.53,11.69,11.69,0,0,1-4.43,1.3c-1.19.18-2.39.31-3.58.46a.86.86,0,0,0,.44.1c.8,0,1.6,0,2.4-.06A27.94,27.94,0,0,0,51.55,60,16,16,0,0,0,53.1,59.27ZM28.7,67.36v.16l2,.67-.18-1.45Z"/></svg>