<svg id="Layer_1" data-name="Layer 1" xmlns="http://www.w3.org/2000/svg" viewBox="0 0 100 100"><defs><style>.cls-1{fill:#ccc;}</style></defs><title>label2</title><circle class="cls-1" cx="50" cy="58" r="24.5"/><path d="M53.18,61c0-.22,0-.44,0-.66a1.63,1.63,0,0,0-.81-1.38,2.05,2.05,0,0,0-1.16-.24c-.23,0-.32-.08-.31-.31,0-.64,0-1.27,0-1.91q0-6.19,0-12.39c0-.92,0-1.84,0-2.77a.75.75,0,0,0-.74-.79.74.74,0,0,0-.79.76c0,.15,0,.29,0,.44q0,4.06,0,8.13h0v8.28c0,.53,0,.53-.54.54a1.74,1.74,0,0,0-1.73,1.75c0,.33,0,.67,0,1q0,4.24,0,8.47c0,.21,0,.42,0,.64a1.63,1.63,0,0,0,1.45,1.6,2,2,0,0,0,.54,0c.2,0,.27.06.26.26,0,.74,0,1.49,0,2.23a.79.79,0,0,0,.12.47.76.76,0,0,0,.83.34.74.74,0,0,0,.58-.73c0-.7,0-1.4,0-2.11,0-.54-.05-.48.45-.45a1.8,1.8,0,0,0,1.86-1.86C53.17,67.21,53.18,64.09,53.18,61Zm-4.57-.5c0-.18.08-.25.25-.25H51.4c.17,0,.26.08.26.25,0,.38,0,.77,0,1.15,0,.17-.07.21-.22.21H48.82c-.16,0-.22-.05-.22-.21C48.61,61.24,48.61,60.85,48.61,60.47Zm3.05,9.87c0,.2-.08.31-.28.31H48.89a.25.25,0,0,1-.28-.29c0-.31,0-.62,0-.93s.06-.22.22-.21h2.61c.17,0,.23.05.23.22S51.65,70,51.66,70.34Zm0-2.87c0,.16-.06.21-.22.21H48.83c-.17,0-.23-.06-.22-.23,0-.32,0-.64,0-1,0-.16.06-.21.22-.21h2.62c.17,0,.23.07.22.23Q51.65,67,51.66,67.47Zm0-2.89c0,.14-.05.19-.19.18H48.83c-.17,0-.23-.06-.23-.23s0-.64,0-1,.07-.22.23-.22h2.59c.16,0,.24,0,.23.22C51.65,63.91,51.65,64.24,51.66,64.57Z"/><path d="M40.43,53.72c0-.2,0-.41,0-.61a1.84,1.84,0,0,0-.58-1.4h0l-.29-.2a2.64,2.64,0,0,0-1.13-.24h-.1c-.22,0-.19-.14-.19-.27q0-4.74,0-9.48c0-.11,0-.23,0-.34a.76.76,0,1,0-1.52.16q0,4.7,0,9.4c0,.52,0,.52-.51.52a1.74,1.74,0,0,0-1.79,1.79q0,3.34,0,6.68c0,1.07,0,2.14,0,3.21a1.68,1.68,0,0,0,.76,1.51,2.23,2.23,0,0,0,1.27.31c.19,0,.28,0,.27.26,0,2.28,0,4.55,0,6.83,0,1,0,1.93,0,2.89a.73.73,0,0,0,.53.74.76.76,0,0,0,.83-.27.91.91,0,0,0,.16-.6q0-4.74,0-9.48c0-.42,0-.38.36-.36a1.82,1.82,0,0,0,1.94-1.94C40.43,59.8,40.43,56.76,40.43,53.72Zm-4.6,2.34c0-.17.07-.21.22-.21h2.61c.17,0,.23.06.23.23,0,.33,0,.65,0,1,0,.13-.05.19-.19.19H36c-.15,0-.2-.06-.2-.21C35.84,56.72,35.85,56.39,35.84,56.07Zm0-3c0-.17.08-.26.25-.26h2.57a.21.21,0,0,1,.23.23c0,.37,0,.73,0,1.1,0,.16-.1.18-.23.18H36.07c-.16,0-.24,0-.24-.22C35.85,53.75,35.84,53.41,35.84,53.07Zm0,5.94c0-.16.06-.21.22-.21h2.61c.17,0,.23.07.23.23,0,.32,0,.64,0,1,0,.16-.06.21-.22.21H36.06c-.17,0-.23-.05-.23-.22S35.84,59.32,35.84,59Zm3.05,3.94c0,.18-.07.28-.28.28h-2.5c-.19,0-.28-.09-.28-.28,0-.35,0-.7,0-1.05,0-.16.06-.19.2-.19h1.32c.43,0,.87,0,1.3,0,.19,0,.24.06.24.24C38.89,62.27,38.89,62.61,38.89,62.94Z"/><path d="M65.69,48.1c0-.27,0-.54,0-.81a1.64,1.64,0,0,0-1.3-1.53,2.17,2.17,0,0,0-.66-.05c-.23,0-.31-.06-.3-.3,0-1.37,0-2.74,0-4.11a.76.76,0,0,0-.53-.77.77.77,0,0,0-1,.79c0,1.24,0,2.48,0,3.72,0,.64,0,.64-.65.66a1.69,1.69,0,0,0-1.55,1.14l-.09.25a6.12,6.12,0,0,0,0,1v1.76h0a.86.86,0,0,0,0,.28,10.22,10.22,0,0,0,0,1.39c0,.2,0,.41,0,.61,0,1.8,0,3.61,0,5.41A1.56,1.56,0,0,0,60.52,59a2.36,2.36,0,0,0,1,.2c.33,0,.33,0,.33.34q0,3.15,0,6.29,0,4.32,0,8.64a2.75,2.75,0,0,0,0,.29.74.74,0,0,0,.48.65.73.73,0,0,0,.78-.13.87.87,0,0,0,.27-.73q0-7.5,0-15c0-.34,0-.35.35-.34a1.88,1.88,0,0,0,1.12-.27,1.86,1.86,0,0,0,.83-1.65Q65.69,52.69,65.69,48.1ZM61.1,50.48c0-.15,0-.2.2-.2H64c.14,0,.19,0,.19.19,0,.33,0,.67,0,1,0,.16-.05.22-.21.22H61.32c-.17,0-.23-.06-.22-.23C61.11,51.14,61.1,50.81,61.1,50.48Zm0,2.94c0-.17.07-.21.22-.21h2.59c.18,0,.25,0,.24.23s0,.62,0,.93,0,.23-.22.23H61.32c-.15,0-.22,0-.22-.21Q61.11,53.91,61.1,53.42Zm3,4c0,.16-.06.25-.22.25H61.33c-.16,0-.23-.1-.23-.25,0-.36,0-.72,0-1.07,0-.16.09-.18.22-.18H63.9c.17,0,.25,0,.25.23C64.14,56.72,64.14,57.07,64.15,57.41Zm-.3-8.64c-.54,0-1.07,0-1.61,0H62c-.22,0-.44,0-.66,0s-.23,0-.23-.22,0-.64,0-1a.8.8,0,0,1,.06-.3.52.52,0,0,1,.31-.05H63.8c.31,0,.34,0,.34.36s0,.57,0,.85S64.1,48.78,63.84,48.77Z"/></svg>