<svg id="Layer_1" data-name="Layer 1" xmlns="http://www.w3.org/2000/svg" viewBox="0 0 100 100"><defs><style>.cls-1{fill:#fff;}.cls-2{fill:#009245;}.cls-3{fill:none;stroke:#fff;stroke-miterlimit:10;stroke-width:1.02px;}</style></defs><title>label2</title><circle class="cls-1" cx="49" cy="58" r="24.5"/><path d="M48.94,51.31H33.69c-1.65,0-2.18-.52-2.19-2.15,0-2,0-4,0-5.93,0-1.53.53-2.07,2-2.07H64.48c1.46,0,2,.53,2,2,0,2.08,0,4.17,0,6.25,0,1.35-.61,1.92-2,1.92Zm6.12-6.55H35.19v2.95H55.05Zm7.07,2.88a1.42,1.42,0,0,0,1.58-1.43,1.38,1.38,0,0,0-1.38-1.42,1.41,1.41,0,0,0-1.46,1.45A1.33,1.33,0,0,0,62.13,47.63Z"/><path d="M49.05,53.05H64.2c1.85,0,2.3.46,2.31,2.35s0,3.73,0,5.6c0,1.67-.51,2.19-2.14,2.19H33.63c-1.6,0-2.13-.51-2.14-2.08q0-3,0-5.93c0-1.64.52-2.13,2.2-2.13Zm6,3.59H35.19v2.94H55.05Zm8.66,1.65a1.44,1.44,0,0,0-1.45-1.59,1.36,1.36,0,0,0-1.4,1.39,1.39,1.39,0,0,0,1.44,1.46A1.37,1.37,0,0,0,63.71,58.29Z"/><path d="M48.89,74.84H33.75c-1.79,0-2.25-.47-2.25-2.29s0-3.8,0-5.71c0-1.6.53-2.13,2.08-2.13H64.41c1.53,0,2.07.52,2.08,2q0,3.07,0,6.15c0,1.43-.57,2-2,2Zm6.16-6.55H35.19v2.94H55.05Zm7.21,2.93a1.45,1.45,0,0,0,1.45-1.55,1.35,1.35,0,0,0-1.47-1.31,1.39,1.39,0,0,0-1.37,1.53A1.41,1.41,0,0,0,62.26,71.21Z"/><circle class="cls-2" cx="68" cy="78.82" r="9.18"/><polyline class="cls-3" points="62.09 79.49 65.58 82.98 73.91 74.65"/></svg>