<svg id="Layer_1" data-name="Layer 1" xmlns="http://www.w3.org/2000/svg" viewBox="0 0 100 100"><defs><style>.cls-1{fill:#fff;stroke-width:15px;}.cls-1,.cls-3{stroke:#fff;stroke-miterlimit:10;}.cls-2{fill:#009245;}.cls-3{fill:none;stroke-width:1.02px;}</style></defs><title>label</title><circle class="cls-1" cx="50" cy="54" r="30"/><path d="M42.45,42.88l2.78,2.63c.58.55,1.18,1.08,1.74,1.65.28.29.46.27.75,0q3.49-3.38,7-6.73c1.92-1.84,3.83-3.69,5.76-5.51.36-.34.38-.57,0-.89s-1-.89-1.47-1.34l.1-.2L67.75,31l-1.67,8.72-1.89-1.87L47.36,54.27l-5-4.74L32.16,59.71l-3.08-3.36Z"/><path d="M67.56,61.77c0,3.53,0,7.06,0,10.58,0,.47-.1.65-.61.65q-4.88,0-9.76,0c-.47,0-.6-.14-.6-.61q0-10.61,0-21.22c0-.45.09-.63.59-.62q4.91,0,9.82,0c.45,0,.58.14.58.58C67.56,54.68,67.56,58.22,67.56,61.77Z"/><path d="M53.36,65.23c0,2.39,0,4.77,0,7.16,0,.46-.12.61-.6.61q-4.86,0-9.71,0c-.48,0-.6-.15-.6-.61q0-7.18,0-14.37c0-.46.12-.61.6-.61q4.86,0,9.71,0c.48,0,.61.15.6.61C53.35,60.42,53.36,62.83,53.36,65.23Z"/><path d="M33.69,62.53c1.64,0,3.27,0,4.91,0,.4,0,.53.11.53.52q0,4.73,0,9.46c0,.39-.13.5-.5.49q-4.93,0-9.87,0c-.38,0-.5-.11-.5-.5q0-4.73,0-9.46c0-.41.13-.53.53-.52C30.42,62.54,32.05,62.53,33.69,62.53Z"/><circle class="cls-2" cx="66" cy="71.82" r="9.18"/><polyline class="cls-3" points="60.09 72.49 63.58 75.98 71.91 67.65"/></svg>