<svg id="Layer_1" data-name="Layer 1" xmlns="http://www.w3.org/2000/svg" viewBox="0 0 100 100"><defs><style>.cls-1{fill:#fff;stroke-width:15px;}.cls-1,.cls-3{stroke:#fff;stroke-miterlimit:10;}.cls-2{fill:#009245;}.cls-3{fill:none;stroke-width:1.02px;}</style></defs><title>label</title><circle class="cls-1" cx="49" cy="58" r="24.5"/><path d="M54.26,57.62a6.59,6.59,0,0,1,5.12.44,6,6,0,0,0,4,.75,5.68,5.68,0,0,0,4.52-5.45,11.52,11.52,0,0,0-6.76-10.1,7.36,7.36,0,0,0-8.08,1.49A13.1,13.1,0,0,0,48.9,53a.78.78,0,0,1-.14.27,1,1,0,0,1-.09-.21A7.18,7.18,0,0,1,49,47.75a8,8,0,0,0,.81-3.66,5.24,5.24,0,0,0-4-4.66l-.13,0a4.93,4.93,0,0,0-.79-.22,4.79,4.79,0,0,0-1.6,0h0a14,14,0,0,0-3.52,1.17,9.76,9.76,0,0,0-6.08,7.51,6.83,6.83,0,0,0,1.57,5.63,12.68,12.68,0,0,0,8.57,4.66h.06l.34.05a.25.25,0,0,1,0,.07.71.71,0,0,1-.34.17,7.24,7.24,0,0,1-5.19-.36,8.17,8.17,0,0,0-3.55-.82c-2.65.12-3.9,2.06-4.61,3.51A5.25,5.25,0,0,0,30.15,62a5,5,0,0,0,0,2,16.18,16.18,0,0,0,1.71,4.39A9.22,9.22,0,0,0,37.3,73a7.19,7.19,0,0,0,7.41-1.38,12.74,12.74,0,0,0,4.45-8.38v-.08c0-.1,0-.23,0-.32h.07s.08.06.17.35a7.19,7.19,0,0,1-.37,5.18,8.17,8.17,0,0,0-.83,3.55,5.44,5.44,0,0,0,5.19,5h.43a11.46,11.46,0,0,0,10.09-7,7.17,7.17,0,0,0-1.46-7.64,12.83,12.83,0,0,0-8.27-4.3h0l-.36-.05a.21.21,0,0,1,0-.07S53.91,57.72,54.26,57.62ZM49,60.2h0a2.2,2.2,0,1,1,.1-4.39,2.21,2.21,0,0,1,2.15,2.25A2.17,2.17,0,0,1,49,60.2Z"/><circle class="cls-2" cx="68" cy="76.82" r="9.18"/><polyline class="cls-3" points="62.09 77.49 65.58 80.98 73.91 72.65"/></svg>