<svg id="Layer_1" data-name="Layer 1" xmlns="http://www.w3.org/2000/svg" viewBox="0 0 100 100"><defs><style>.cls-1{fill:#fff;}.cls-2{fill:#009245;}.cls-3{fill:none;stroke:#fff;stroke-miterlimit:10;stroke-width:1.02px;}</style></defs><title>label2</title><circle class="cls-1" cx="50" cy="54" r="24.5"/><path d="M55.26,53.62a6.59,6.59,0,0,1,5.12.44,6,6,0,0,0,4,.75,5.68,5.68,0,0,0,4.52-5.45,11.52,11.52,0,0,0-6.76-10.1,7.36,7.36,0,0,0-8.08,1.49A13.1,13.1,0,0,0,49.9,49a.78.78,0,0,1-.14.27,1,1,0,0,1-.09-.21A7.18,7.18,0,0,1,50,43.75a8,8,0,0,0,.81-3.66,5.24,5.24,0,0,0-4-4.66l-.13,0a4.93,4.93,0,0,0-.79-.22,4.79,4.79,0,0,0-1.6,0h0a14,14,0,0,0-3.52,1.17,9.76,9.76,0,0,0-6.08,7.51,6.83,6.83,0,0,0,1.57,5.63,12.68,12.68,0,0,0,8.57,4.66h.06l.34.05a.25.25,0,0,1,0,.07.71.71,0,0,1-.34.17,7.24,7.24,0,0,1-5.19-.36,8.17,8.17,0,0,0-3.55-.82c-2.65.12-3.9,2.06-4.61,3.51A5.25,5.25,0,0,0,31.15,58a5,5,0,0,0,0,2,16.18,16.18,0,0,0,1.71,4.39A9.22,9.22,0,0,0,38.3,69a7.19,7.19,0,0,0,7.41-1.38,12.74,12.74,0,0,0,4.45-8.38v-.08c0-.1,0-.23,0-.32h.07s.08.06.17.35a7.19,7.19,0,0,1-.37,5.18,8.17,8.17,0,0,0-.83,3.55,5.44,5.44,0,0,0,5.19,5h.43a11.46,11.46,0,0,0,10.09-7,7.17,7.17,0,0,0-1.46-7.64,12.83,12.83,0,0,0-8.27-4.3h0l-.36-.05a.21.21,0,0,1,0-.07S54.91,53.72,55.26,53.62ZM50,56.2h0a2.2,2.2,0,1,1,.1-4.39,2.21,2.21,0,0,1,2.15,2.25A2.17,2.17,0,0,1,50,56.2Z"/><circle class="cls-1" cx="50" cy="54" r="30"/><path d="M45.59,59.21A13.84,13.84,0,1,1,59.38,73.05,13.85,13.85,0,0,1,45.59,59.21Zm12.89,5.36a2.13,2.13,0,0,1-1.14-1.18c-.19-.43-.33-.85-.47-1.28a1.43,1.43,0,0,0-1.23-1,1.72,1.72,0,0,0-2,2.09,5,5,0,0,0,3.7,4c.38.14.9.09,1.09.33s0,.76.09,1.14a1,1,0,0,0,1,1,1,1,0,0,0,.95-1v-.33c0-.81,0-.81.81-1a.67.67,0,0,0,.28-.09,4.91,4.91,0,0,0,3.79-4.5,4.55,4.55,0,0,0-3.51-4.83l-1.37-.43v-3.6a1.79,1.79,0,0,1,1,1.37,1.69,1.69,0,0,0,2.13,1.23,1.66,1.66,0,0,0,1.09-2.13,4.46,4.46,0,0,0-3.08-3.13,9.39,9.39,0,0,0-1.23-.28V49.78a1,1,0,0,0-.95-1,1,1,0,0,0-1,1v.85c0,.28-.09.38-.38.43a6.11,6.11,0,0,0-1.33.38A4.08,4.08,0,0,0,54,55.18a4.17,4.17,0,0,0,2.46,4.41c.57.24,1.14.47,1.71.66.24.09.33.19.33.43v3.89Z"/><path d="M40.85,49.21a18.64,18.64,0,0,1-8.63-1.94,6.86,6.86,0,0,1-2.42-1.94,3.32,3.32,0,0,1,0-4.36,7.57,7.57,0,0,1,2.75-2.13,17.84,17.84,0,0,1,6.59-1.71,22.3,22.3,0,0,1,8.1.81,11.16,11.16,0,0,1,4.27,2.23,4.43,4.43,0,0,1,.76.85,3.31,3.31,0,0,1-.09,4.31,8.85,8.85,0,0,1-4,2.65A20.53,20.53,0,0,1,40.85,49.21Zm5.64-5.78a2.13,2.13,0,0,1-1.37.76,6.1,6.1,0,0,0-1,.28.43.43,0,0,0,0,.81,1.6,1.6,0,0,0,.81.24,4.35,4.35,0,0,0,2.65-.76,2.23,2.23,0,0,0,.71-.9.56.56,0,0,1,.62-.43,5,5,0,0,0,1.18,0c.14,0,.24-.19.33-.28-.09-.09-.19-.24-.33-.28a1.31,1.31,0,0,0-.43,0h-1c-.09,0-.28-.09-.28-.19a2.45,2.45,0,0,0-1.52-1.47,7.27,7.27,0,0,0-3.32-.38,3.74,3.74,0,0,0-3.22,1.85.6.6,0,0,1-.43.19H35.69c.14-.14.19-.28.28-.33.57-.24,1.18-.43,1.8-.62.33-.09.66-.14.95-.24a.45.45,0,0,0,0-.85,1.41,1.41,0,0,0-.71-.24,5.18,5.18,0,0,0-3.13.71,2.17,2.17,0,0,0-1.14,1.28.37.37,0,0,1-.43.28,9.11,9.11,0,0,0-1.14,0,1.23,1.23,0,0,0-.52.33,2.83,2.83,0,0,0,.52.28c.38,0,.81,0,1.23,0,.09,0,.28.09.28.19a2.79,2.79,0,0,0,1.66,1.61,6.86,6.86,0,0,0,3.22.47c1.56-.09,3-.52,3.79-2.09a.39.39,0,0,1,.28-.19Z"/><path d="M29.53,55.42a14.91,14.91,0,0,0,8,3.36,23.37,23.37,0,0,0,6.3.09h.38c.14,1.33.33,2.7.52,4.08-.47,0-1,.14-1.56.19a20.77,20.77,0,0,1-9.91-1.37A8.83,8.83,0,0,1,30,59.59a3.35,3.35,0,0,1-.57-4.08S29.48,55.47,29.53,55.42Z"/><path d="M48.25,49A16,16,0,0,0,45.59,53a.6.6,0,0,1-.33.24,21.32,21.32,0,0,1-12.61-1.33,7.12,7.12,0,0,1-2.8-2.09,3.31,3.31,0,0,1-.66-3.51h.09a12.39,12.39,0,0,0,6.4,3.27,23.28,23.28,0,0,0,12.23-.43A1.93,1.93,0,0,0,48.25,49Z"/><path d="M45,54.28c-.19,1.14-.43,2.23-.62,3.32,0,.09-.19.24-.33.24a22.36,22.36,0,0,1-6.16,0A17,17,0,0,1,32,56,7,7,0,0,1,29.57,54a3.2,3.2,0,0,1-.47-3s0-.09,0-.14l0,0c2.61,2.46,5.83,3.36,9.29,3.74a23.65,23.65,0,0,0,6.07-.14A.87.87,0,0,1,45,54.28Z"/><path d="M60.47,64.66V61a1.81,1.81,0,0,1,1.61,1.75A2,2,0,0,1,60.47,64.66Z"/><path d="M58.44,53.81v2.94a1.42,1.42,0,0,1-1.18-1.33A1.54,1.54,0,0,1,58.44,53.81Z"/><path d="M39.76,43.43a2,2,0,0,1-2,1,2.38,2.38,0,0,1-2.23-1Z"/><path d="M46.49,42.77H42.84A1.86,1.86,0,0,1,44.6,42,2,2,0,0,1,46.49,42.77Z"/><circle class="cls-2" cx="66" cy="71.82" r="9.18"/><polyline class="cls-3" points="60.09 72.49 63.58 75.98 71.91 67.65"/></svg>