<svg id="Layer_1" data-name="Layer 1" xmlns="http://www.w3.org/2000/svg" viewBox="0 0 100 100"><defs><style>.cls-1{fill:#fff;stroke-width:15px;}.cls-1,.cls-3{stroke:#fff;stroke-miterlimit:10;}.cls-2{fill:#009245;}.cls-3{fill:none;stroke-width:1.02px;}</style></defs><title>label</title><circle class="cls-1" cx="50" cy="54" r="30"/><path d="M44.92,49.42v-.63c0-3.91,0-7.82,0-11.73a2.64,2.64,0,0,1,1.37-2.46,11.78,11.78,0,0,1,4.15-1.43,43.41,43.41,0,0,1,16,.08,11.41,11.41,0,0,1,3.65,1.27,2.64,2.64,0,0,1,1.48,2.62c-.09,1.85,0,3.71,0,5.57s0,3.52,0,5.29q0,6.15,0,12.3c0,1.57,0,3.14,0,4.71a2.35,2.35,0,0,1-1.07,2.08,10.15,10.15,0,0,1-4,1.52,42.05,42.05,0,0,1-10.42.75,1.13,1.13,0,0,0-.45.08c-.74.29-1.47.62-2.22.9-.25.09-.39.17-.36.46.19,1.51-.67,2.35-1.9,2.95a17.73,17.73,0,0,1-5.5,1.44,45.37,45.37,0,0,1-11.16.09A21.34,21.34,0,0,1,29,74a8.8,8.8,0,0,1-.91-.43,2.7,2.7,0,0,1-1.64-2.78c.08-1,0-2.08,0-3.12a2,2,0,0,1,1-1.92c.59-.34,1.23-.59,1.88-.9a2.6,2.6,0,0,1-.88-2.52c0-.7,0-1.41,0-2.15-.31-.1-.62-.18-.91-.3A19.34,19.34,0,0,1,25.64,59a2.37,2.37,0,0,1-1.26-2.31c0-1.07,0-2.15,0-3.22a2.55,2.55,0,0,1,1.27-2.37,11.19,11.19,0,0,1,4.13-1.48,44.3,44.3,0,0,1,14.58-.24ZM69.53,39.11a40.54,40.54,0,0,1-22.56,0c0-.06,0,0,0,0,0,1.06,0,2.11,0,3.17a.81.81,0,0,0,.55.86,17.52,17.52,0,0,0,2.27.77A40.35,40.35,0,0,0,66,44.06a19.6,19.6,0,0,0,3.13-1,.76.76,0,0,0,.4-.56C69.54,41.34,69.53,40.2,69.53,39.11ZM47,45.13c0,1.19,0,2.34,0,3.49a.85.85,0,0,0,.45.6,13.85,13.85,0,0,0,2.34.83A40.29,40.29,0,0,0,66,50.22a20.63,20.63,0,0,0,3.13-1,.7.7,0,0,0,.41-.46c0-1.18,0-2.36,0-3.58a31.49,31.49,0,0,1-11.27,1.66A31.3,31.3,0,0,1,47,45.13Zm22.58,6.22c-6.1,2-12.26,1.88-18.45,1.12V56.7l4.35.29a39.53,39.53,0,0,0,10.47-.6,22.58,22.58,0,0,0,3.05-1,.94.94,0,0,0,.55-.62C69.57,53.66,69.54,52.5,69.54,51.34ZM49.05,53v-.17a5.2,5.2,0,0,0-.93-.46,36.84,36.84,0,0,0-3.81-.94,41.18,41.18,0,0,0-13.06,0,32.87,32.87,0,0,0-3.93,1,4.22,4.22,0,0,0-.9.55,2.89,2.89,0,0,0,.31.26,2.2,2.2,0,0,0,.51.26c1.37.36,2.74.81,4.13,1a42.38,42.38,0,0,0,12.06.11,17.2,17.2,0,0,0,4.74-1.15A8.06,8.06,0,0,0,49.05,53ZM69.56,36.59l0-.17a4.63,4.63,0,0,0-.71-.38,19.38,19.38,0,0,0-2.2-.68,41.5,41.5,0,0,0-15.41-.25,25,25,0,0,0-3.36.94,4.24,4.24,0,0,0-.89.54l0,.18c.37.17.73.37,1.11.51a23.11,23.11,0,0,0,5.72,1.14,44.5,44.5,0,0,0,9.63-.09,18.15,18.15,0,0,0,5.25-1.24A7.78,7.78,0,0,0,69.56,36.59ZM57.26,63.21a1.29,1.29,0,0,0,.2,0c2.08-.1,4.16-.14,6.23-.33a17.65,17.65,0,0,0,4.89-1.12,1.27,1.27,0,0,0,1-1.45c-.09-.94,0-1.9,0-2.87-4.68,1.71-9.48,1.74-14.37,1.6,0,.48,0,.93,0,1.37a.56.56,0,0,0,.35.59A2.75,2.75,0,0,1,57.26,63.21ZM26.47,55.5c-.15,1.74,0,1.94,1.64,2.45A28.09,28.09,0,0,0,34.88,59a39.74,39.74,0,0,0,10.61-.63,21.77,21.77,0,0,0,3-1,1,1,0,0,0,.53-.61,6.71,6.71,0,0,0,0-1.3A40.52,40.52,0,0,1,26.47,55.5Zm26.64,6.18a40.66,40.66,0,0,1-22.54,0s0,.18,0,.32c0,1.53,0,1.54,1.42,2a23.68,23.68,0,0,0,5.64,1.07,41,41,0,0,0,11.95-.53,21.26,21.26,0,0,0,3-1,.94.94,0,0,0,.52-.6A7.06,7.06,0,0,0,53.11,61.68ZM51.05,71c-7.59.75-15.13.84-22.55-1.3,0,.46,0,.94,0,1.42a.64.64,0,0,0,.44.71,14.94,14.94,0,0,0,2.12.76,40.14,40.14,0,0,0,16.81.14,17.82,17.82,0,0,0,2.76-.94C51,71.62,51.2,71.35,51.05,71ZM32.64,66.43c-.16.92-.08,1.09.79,1.45a10.44,10.44,0,0,0,1.27.44,31.84,31.84,0,0,0,7,1,39.06,39.06,0,0,0,9.75-.63,23.08,23.08,0,0,0,3.1-1,1,1,0,0,0,.6-.61,7.2,7.2,0,0,0,0-1.44,1.55,1.55,0,0,0-.23,0,23.13,23.13,0,0,1-7.17,1.45c-1.46.1-2.94.13-4.41.12-2,0-4,0-6-.19C35.77,67,34.21,66.66,32.64,66.43Zm36.9-2.83c-4,1.51-8.14,1.67-12.28,1.68v2a37.35,37.35,0,0,0,8.67-.69,23.9,23.9,0,0,0,3-.95,1,1,0,0,0,.58-.61A7.64,7.64,0,0,0,69.54,63.6ZM53.1,59.27V59c-.38-.06-.76-.11-1.13-.18a3.76,3.76,0,0,0-2.83.53,11.69,11.69,0,0,1-4.43,1.3c-1.19.18-2.39.31-3.58.46a.86.86,0,0,0,.44.1c.8,0,1.6,0,2.4-.06A27.94,27.94,0,0,0,51.55,60,16,16,0,0,0,53.1,59.27ZM28.7,67.36v.16l2,.67-.18-1.45Z"/><circle class="cls-2" cx="66" cy="71.82" r="9.18"/><polyline class="cls-3" points="60.09 72.49 63.58 75.98 71.91 67.65"/></svg>