<svg id="Layer_1" data-name="Layer 1" xmlns="http://www.w3.org/2000/svg" viewBox="0 0 100 100"><defs><style>.cls-1{fill:#fff;stroke-width:15px;}.cls-1,.cls-5{stroke:#fff;}.cls-1,.cls-2,.cls-5{stroke-miterlimit:10;}.cls-2,.cls-5{fill:none;}.cls-2{stroke:#231f20;stroke-width:1.33px;}.cls-3{fill:#231f20;}.cls-4{fill:#009245;}.cls-5{stroke-width:1.02px;}</style></defs><title>label</title><circle class="cls-1" cx="49" cy="58" r="24.5"/><path d="M33.2,45.59c.9.23.63.88.38,1.5a29,29,0,0,0,0,21.37c.24.58.78,1.32-.19,1.66s-1-.57-1.16-1.09a29.94,29.94,0,0,1-.12-22.2C32.29,46.34,32.4,45.72,33.2,45.59Z"/><path d="M35.14,57.78a31.41,31.41,0,0,1,1.92-10.47c.12-.31.23-.63.38-.92.25-.5.53-1.08,1.24-.7s.28.84.09,1.3a28.29,28.29,0,0,0-2.07,10.85,28,28,0,0,0,2,10.69c.21.52.72,1.21-.15,1.55s-1-.51-1.2-1A30.14,30.14,0,0,1,35.14,57.78Z"/><path d="M68,57.47a29.54,29.54,0,0,1-2,11c-.23.58-.37,1.49-1.29,1.11s-.26-1-.08-1.56a28.81,28.81,0,0,0-.32-21.05c-.22-.55-.66-1.24.18-1.55s1,.51,1.19,1A28.81,28.81,0,0,1,68,57.47Z"/><path d="M61.08,58.43a27.82,27.82,0,0,0-2-11.36c-.24-.57-.81-1.32.14-1.68s1,.58,1.18,1.09a29.81,29.81,0,0,1,.25,22.06c-.2.53-.38,1.36-1.21,1s-.35-1-.14-1.56A26.16,26.16,0,0,0,61.08,58.43Z"/><rect class="cls-2" x="42.41" y="44.72" width="13.94" height="26.55"/><circle class="cls-3" cx="52.7" cy="59" r="1"/><circle class="cls-4" cx="68" cy="77.82" r="9.18"/><polyline class="cls-5" points="62.09 78.49 65.58 81.98 73.91 73.65"/></svg>