<svg id="Layer_1" data-name="Layer 1" xmlns="http://www.w3.org/2000/svg" viewBox="0 0 100 100"><defs><style>.cls-1{fill:#fff;stroke-width:15px;}.cls-1,.cls-3{stroke:#fff;stroke-miterlimit:10;}.cls-2{fill:#009245;}.cls-3{fill:none;stroke-width:1.02px;}</style></defs><title>label</title><circle class="cls-1" cx="49" cy="58" r="24.5"/><path d="M53.52,74.56a2.64,2.64,0,0,1-2.27,2.16,5.7,5.7,0,0,1-5.39-1c-.61-.52-.74-.71-1.23-2L44,73.59A2.44,2.44,0,0,1,42.07,70a.74.74,0,0,0,0-.71,2.4,2.4,0,0,1,.08-2c.06-.12.12-.33.06-.4a4.59,4.59,0,0,1-.56-2.16,8.87,8.87,0,0,0-2.1-4.54A12.55,12.55,0,0,1,38,45.45a12.38,12.38,0,0,1,9.77-6.34A12.66,12.66,0,0,1,58.22,60.38a8.54,8.54,0,0,0-2,5,8.68,8.68,0,0,1-.38,1.38c0,.12-.11.28-.07.35a3.2,3.2,0,0,1,0,3,.66.66,0,0,0,.07.7,2.33,2.33,0,0,1,.1,2.49,2.37,2.37,0,0,1-2.14,1.3ZM49,67.47H44.54c-.65,0-1,.34-1,.88s.36.87,1,.94l8.53.88c.91.09,1.1,0,1.38-.89a4.48,4.48,0,0,0,.12-.44c.2-.92-.15-1.37-1.09-1.37ZM53.67,73a.93.93,0,0,0,1-.8.9.9,0,0,0-.79-1c-.87-.1-1.75-.18-2.62-.27l-6.77-.69a.94.94,0,0,0-1.11.74.88.88,0,0,0,.86,1l2.12.22Zm-4.34,2.41a4.54,4.54,0,0,0,2.21-.49.6.6,0,0,0,.13-1.07,1.22,1.22,0,0,0-.64-.29c-1.36-.17-2.73-.31-4.1-.45-.62-.06-.84.24-.57.81a1.3,1.3,0,0,0,.33.42A3.74,3.74,0,0,0,49.33,75.39Z"/><circle class="cls-2" cx="68" cy="76.82" r="9.18"/><polyline class="cls-3" points="62.09 77.49 65.58 80.98 73.91 72.65"/></svg>