<svg id="Layer_1" data-name="Layer 1" xmlns="http://www.w3.org/2000/svg" viewBox="0 0 100 100"><defs><style>.cls-1{fill:#fff;}.cls-2,.cls-4{fill:none;}.cls-3{fill:#009245;}.cls-4{stroke:#fff;stroke-miterlimit:10;stroke-width:1.02px;}</style></defs><title>label2</title><circle class="cls-1" cx="50" cy="54" r="24.5"/><path d="M53.84,68.06a2.25,2.25,0,0,1-1.92,1.84A4.84,4.84,0,0,1,47.34,69c-.52-.44-.63-.6-1-1.7l-.56-.08a2.08,2.08,0,0,1-1.61-3.06.63.63,0,0,0,0-.6,2,2,0,0,1,.07-1.71c0-.1.1-.28,0-.34a3.9,3.9,0,0,1-.48-1.84A7.54,7.54,0,0,0,42,55.83a10.66,10.66,0,0,1-1.34-12.49A10.52,10.52,0,0,1,49,38,10.75,10.75,0,0,1,57.83,56a7.25,7.25,0,0,0-1.72,4.2,7.37,7.37,0,0,1-.32,1.17c0,.1-.09.23-.06.3a2.71,2.71,0,0,1,0,2.55.56.56,0,0,0,.06.59A2,2,0,0,1,55.89,67a2,2,0,0,1-1.82,1.11ZM50,62H46.22c-.55,0-.88.29-.89.75s.31.74.82.79l7.25.74c.77.08.94,0,1.17-.76a3.81,3.81,0,0,0,.1-.37c.17-.78-.13-1.16-.93-1.16Zm4,4.68a.79.79,0,0,0,.84-.68.76.76,0,0,0-.67-.84c-.74-.09-1.48-.16-2.22-.23l-5.75-.58a.79.79,0,0,0-.94.63.75.75,0,0,0,.73.89l1.8.18Zm-3.69,2a3.85,3.85,0,0,0,1.87-.42.51.51,0,0,0,.11-.91,1,1,0,0,0-.54-.24c-1.16-.14-2.32-.27-3.48-.39-.53-.05-.71.2-.49.69a1.1,1.1,0,0,0,.28.36A3.17,3.17,0,0,0,50.28,68.77Z"/><circle class="cls-1" cx="50" cy="54" r="30"/><path class="cls-2" d="M51.42,66.51h0a1.26,1.26,0,0,1,.57.14,2,2,0,0,0-.33-.24,2.13,2.13,0,0,1-.52-.62c-.09.28-.19.52-.28.81A1.77,1.77,0,0,1,51.42,66.51Z"/><path class="cls-2" d="M51.42,50.59a1.68,1.68,0,0,0-.43.19,1.19,1.19,0,0,0-.33.19,4.78,4.78,0,0,0,.71-.33S51.37,50.59,51.42,50.59Z"/><path class="cls-2" d="M40.19,51.63v0a2.21,2.21,0,0,1,.14-.81A1.22,1.22,0,0,0,40.19,51.63Z"/><path class="cls-2" d="M42.8,63.19s0,0,0,.09c.09-.28.19-.52.28-.81a1.42,1.42,0,0,1,.28-.52.94.94,0,0,1-.47-.09A2.13,2.13,0,0,1,42.8,63.19Z"/><path class="cls-2" d="M47.16,63.91c-.09.28-.19.57-.28.9,0,0,0-.09,0-.19a1.82,1.82,0,0,1,1.23-1.18,1.89,1.89,0,0,1-.9-.52A2.52,2.52,0,0,1,47.16,63.91Z"/><path class="cls-2" d="M38.63,62l.14-.28a3.53,3.53,0,0,1,.33-.57.73.73,0,0,1-.57-.09,1.73,1.73,0,0,1,.14.71A.36.36,0,0,0,38.63,62Z"/><path d="M51.66,51.3c-1.42.66-3,1.33-4.6,1.94-.33.14-.66.28-.95.43a6.83,6.83,0,0,1-2.94.85h0a3.53,3.53,0,0,1-3.6-2.46q-.57-1.71,1.71-3.27c1.33-.95,2.65-1.9,4.22-3a.25.25,0,0,1,.19-.09s.19-.09.24-.14H45.4a10.49,10.49,0,0,0-3.55,1l-.38.14c-2.13.81-4.41,1.37-6.78,0a.88.88,0,0,0-.33-.09s-.19.09-.33.38c-2.18,3.93-3.84,7-5.45,9.86-.28.52-.19.66.19.85,1.61.9,3.22,1.85,4.74,2.7.33.19.43.19.71-.14A2.77,2.77,0,0,1,36.4,59a3,3,0,0,1,2.23,1.09c.33.38.33.38.66.19,1.66-.9,2.7-.66,3.89.85q.07.14.14.14s.14-.09.24-.14c1.66-.9,2.8-.66,4,.9a1.45,1.45,0,0,0,1.28.71h.19a2.63,2.63,0,0,1,2.61,2l0,.09a1.84,1.84,0,0,0,.52.95c.62.47,1.18.95,1.8,1.42s1.23.95,1.8,1.42a1.4,1.4,0,0,0,2.23-1,2,2,0,0,0-.9-1.52c-2.51-2-5-3.93-7.39-5.83l0,0c-.24-.19-.9-.71-.43-1.33a.72.72,0,0,1,.52-.33,1,1,0,0,1,.81.38s.09,0,.09.09c1.14.9,2.27,1.8,3.46,2.7,1.61,1.28,3.27,2.56,4.88,3.89l.14.09a7.3,7.3,0,0,0,1.47,1,1.22,1.22,0,0,0,1.66-.47,1.16,1.16,0,0,0-.09-1.71,7.44,7.44,0,0,0-1.14-1l-3.51-2.8c-1.71-1.33-3.41-2.7-5.12-4,0,0,0,0-.09-.09-.24-.19-.81-.62-.43-1.18a.73.73,0,0,1,.52-.33,1.21,1.21,0,0,1,.9.38l0,0c1.09.81,2.13,1.66,3.18,2.46l.62.47c.81.62,1.61,1.28,2.37,1.9,1.56,1.23,3.18,2.56,4.79,3.79a2.17,2.17,0,0,0,1.47.62,1.3,1.3,0,0,0,.9-.66c.43-.57.66-1.23-.62-2.23-1.52-1.18-3-2.37-4.5-3.6-2.84-2.23-5.73-4.55-8.63-6.82A1.05,1.05,0,0,0,51.66,51.3Z"/><path d="M73.27,56.46c-.57-1-1.14-2-1.71-3.08-1-1.75-2-3.55-3-5.36v0c-.43-.81-.71-1.28-.95-1.37s-.76.14-1.66.47l-.28.14a2.53,2.53,0,0,1-2.42.09L60.38,45.9c-1.14-.52-2.32-1.09-3.41-1.71a3.94,3.94,0,0,0-3.74-.28,25.32,25.32,0,0,1-2.46.85,11.88,11.88,0,0,0-3.65,1.52c-1.85,1.33-3.74,2.65-5.45,3.93a1.51,1.51,0,0,0-.71,1.28,1.48,1.48,0,0,0,.9,1.18,3,3,0,0,0,2.7,0c.52-.19,1-.43,1.52-.62,1.52-.62,3.08-1.23,4.55-2a3.54,3.54,0,0,1,1.56-.43,3.28,3.28,0,0,1,2.18.95c3,2.46,6.07,4.88,9.05,7.25,1.33,1,2.61,2.09,3.93,3.13.47.38.66.43,1,.14,1-.76,2-1.52,3.08-2.23.62-.43,1.23-.85,1.85-1.33.24-.19.33-.28.33-.43s0-.14-.09-.19A1.09,1.09,0,0,1,73.27,56.46Z"/><path d="M50.43,65.61c-.14-.95-.43-1.33-1-1.42a3.26,3.26,0,0,0-.62-.09,1.14,1.14,0,0,0-1.18.81c-.47,1.23-1,2.61-1.37,3.93a1.25,1.25,0,0,0,.81,1.61A1.19,1.19,0,0,0,48.77,70c.47-1,.85-2.13,1.23-3.18C50.14,66.42,50.28,66,50.43,65.61Z"/><path d="M45.59,62a1.2,1.2,0,0,0-.57-.09,2.38,2.38,0,0,0-.57.09,1.31,1.31,0,0,0-.71.71c-.52,1.42-1,2.75-1.33,4a1.31,1.31,0,0,0,.19,1.18,1.47,1.47,0,0,0,1.23.57,1.5,1.5,0,0,0,1.28-1c.43-1.18.85-2.46,1.23-3.74A1.17,1.17,0,0,0,45.59,62Z"/><path d="M41.33,61.2a1.46,1.46,0,0,0-.62-.14,1.39,1.39,0,0,0-1.28.85,16.6,16.6,0,0,0-.81,2.46,1.54,1.54,0,0,0,.19,1.23,1.49,1.49,0,0,0,1.14.47h0a1.19,1.19,0,0,0,1.33-.95l.09-.33c.19-.62.43-1.23.62-1.85A1.2,1.2,0,0,0,41.33,61.2Z"/><path d="M36.4,60.26h0c-.85,0-1.71,1.09-1.75,2.23a1.41,1.41,0,0,0,.38.95,1.5,1.5,0,0,0,1.09.43h0a1.59,1.59,0,0,0,1.14-.52,2.37,2.37,0,0,0,.62-1.71A1.46,1.46,0,0,0,36.4,60.26Z"/><path d="M51.42,67.27c-.19,0-.24,0-.33.57a1.72,1.72,0,0,1-.33.81.55.55,0,0,0-.09.33,2.05,2.05,0,0,1,0,.24,1.37,1.37,0,0,0,0,1.14c.19.28.71.33,1.09.33h0a1.43,1.43,0,0,0,1.52-1.28,3.65,3.65,0,0,0-.9-1.56c-.47-.47-.76-.57-.85-.57Z"/><circle class="cls-3" cx="66" cy="71.82" r="9.18"/><polyline class="cls-4" points="60.09 72.49 63.58 75.98 71.91 67.65"/></svg>